{"images":[{"uri":"TrunkStalk_1.jpg","name":"TrunkStalk_1.jpg"},{"uri":"Graund.JPG","name":"Graund.JPG"},{"uri":"TrunkStalk_1_Normal.jpg","name":"TrunkStalk_1_Normal.jpg"},{"uri":"Palm_Front_2.jpg","name":"Palm_Front_2.jpg"},{"uri":"Grass_1.jpg","name":"Grass_1.jpg"},{"uri":"Grass_3.jpg","name":"Grass_3.jpg"},{"uri":"Grass_4.jpg","name":"Grass_4.jpg"},{"uri":"Grass_2.jpg","name":"Grass_2.jpg"},{"uri":"bs20181114aa66.jpg","name":"bs20181114aa66.jpg"},{"uri":"FicusBenjamina_leaf_04.jpg","name":"FicusBenjamina_leaf_04.jpg"},{"uri":"Palm_Front_2_Normal.jpg","name":"Palm_Front_2_Normal.jpg"},{"uri":"FicusBenjamina_leaf_05.jpg","name":"FicusBenjamina_leaf_05.jpg"},{"uri":"FicusBenjamina_leaf_02.jpg","name":"FicusBenjamina_leaf_02.jpg"},{"uri":"FicusBenjamina_leaf_02_Normal.jpg","name":"FicusBenjamina_leaf_02_Normal.jpg"},{"uri":"bs20181114aa66_Normal.jpg","name":"bs20181114aa66_Normal.jpg"}],"accessors":[{"componentType":5123,"bufferView":0,"count":93564,"type":"SCALAR","byteOffset":0},{"componentType":5125,"bufferView":0,"count":514320,"type":"SCALAR","byteOffset":187128},{"componentType":5123,"bufferView":0,"count":172164,"type":"SCALAR","byteOffset":2244408},{"componentType":5123,"bufferView":0,"count":172164,"type":"SCALAR","byteOffset":2588736},{"componentType":5123,"bufferView":0,"count":54372,"type":"SCALAR","byteOffset":2933064},{"componentType":5123,"bufferView":0,"count":54372,"type":"SCALAR","byteOffset":3041808},{"componentType":5123,"bufferView":0,"count":48108,"type":"SCALAR","byteOffset":3150552},{"componentType":5123,"bufferView":0,"count":48108,"type":"SCALAR","byteOffset":3246768},{"componentType":5123,"bufferView":0,"count":40776,"type":"SCALAR","byteOffset":3342984},{"componentType":5123,"bufferView":0,"count":40776,"type":"SCALAR","byteOffset":3424536},{"componentType":5125,"bufferView":0,"count":609204,"type":"SCALAR","byteOffset":3506088},{"componentType":5125,"bufferView":0,"count":416508,"type":"SCALAR","byteOffset":5942904},{"componentType":5123,"bufferView":0,"count":27324,"type":"SCALAR","byteOffset":7608936},{"componentType":5123,"bufferView":0,"count":85104,"type":"SCALAR","byteOffset":7663584},{"componentType":5123,"bufferView":0,"count":6048,"type":"SCALAR","byteOffset":7833792},{"componentType":5123,"bufferView":0,"count":146496,"type":"SCALAR","byteOffset":7845888},{"componentType":5123,"bufferView":0,"count":221613,"type":"SCALAR","byteOffset":8138880},{"componentType":5123,"bufferView":0,"count":71358,"type":"SCALAR","byteOffset":8582108},{"componentType":5123,"bufferView":0,"count":20160,"type":"SCALAR","byteOffset":8724824},{"componentType":5123,"bufferView":0,"count":25242,"type":"SCALAR","byteOffset":8765144},{"componentType":5123,"bufferView":0,"count":6474,"type":"SCALAR","byteOffset":8815628},{"componentType":5123,"bufferView":0,"count":6474,"type":"SCALAR","byteOffset":8828576},{"componentType":5123,"bufferView":0,"count":4074,"type":"SCALAR","byteOffset":8841524},{"componentType":5123,"bufferView":0,"count":4074,"type":"SCALAR","byteOffset":8849672},{"componentType":5123,"bufferView":0,"count":4074,"type":"SCALAR","byteOffset":8857820},{"componentType":5123,"bufferView":0,"count":51258,"type":"SCALAR","byteOffset":8865968},{"componentType":5123,"bufferView":0,"count":51258,"type":"SCALAR","byteOffset":8968484},{"componentType":5123,"bufferView":0,"count":14016,"type":"SCALAR","byteOffset":9071000},{"componentType":5123,"bufferView":0,"count":14016,"type":"SCALAR","byteOffset":9099032},{"componentType":5123,"bufferView":0,"count":14016,"type":"SCALAR","byteOffset":9127064},{"componentType":5123,"bufferView":0,"count":51258,"type":"SCALAR","byteOffset":9155096},{"componentType":5123,"bufferView":0,"count":51258,"type":"SCALAR","byteOffset":9257612},{"componentType":5123,"bufferView":0,"count":14016,"type":"SCALAR","byteOffset":9360128},{"componentType":5123,"bufferView":0,"count":51258,"type":"SCALAR","byteOffset":9388160},{"componentType":5123,"bufferView":0,"count":14016,"type":"SCALAR","byteOffset":9490676},{"componentType":5126,"max":[1.4290708303451538,0.9386316537857056,2.4568943977355957],"bufferView":1,"count":18494,"type":"VEC3","min":[-0.15700888633728027,-0.31285279989242554,0.5880582332611084],"byteOffset":0},{"componentType":5126,"bufferView":1,"count":18494,"type":"VEC3","byteOffset":12},{"componentType":5126,"bufferView":1,"count":18494,"type":"VEC4","byteOffset":24},{"componentType":5126,"bufferView":1,"count":18494,"type":"VEC2","byteOffset":40},{"componentType":5126,"bufferView":1,"count":18494,"type":"VEC2","byteOffset":48},{"componentType":5126,"max":[1.680100917816162,1.3117300271987915,2.6848604679107666],"bufferView":2,"count":136878,"type":"VEC3","min":[-0.3018444776535034,-0.49743765592575073,0.36506256461143494],"byteOffset":0},{"componentType":5126,"bufferView":2,"count":136878,"type":"VEC3","byteOffset":12},{"componentType":5126,"bufferView":2,"count":136878,"type":"VEC4","byteOffset":24},{"componentType":5126,"bufferView":2,"count":136878,"type":"VEC2","byteOffset":40},{"componentType":5126,"bufferView":2,"count":136878,"type":"VEC2","byteOffset":48},{"componentType":5126,"max":[-0.5263166427612305,-0.15867194533348083,1.4321441650390625],"bufferView":3,"count":44631,"type":"VEC3","min":[-1.5170254707336426,-1.2132583856582642,0.5438952445983887],"byteOffset":0},{"componentType":5126,"bufferView":3,"count":44631,"type":"VEC3","byteOffset":12},{"componentType":5126,"bufferView":3,"count":44631,"type":"VEC4","byteOffset":24},{"componentType":5126,"bufferView":3,"count":44631,"type":"VEC2","byteOffset":40},{"componentType":5126,"bufferView":3,"count":44631,"type":"VEC2","byteOffset":48},{"componentType":5126,"max":[1.254415512084961,-0.17733818292617798,1.48851478099823],"bufferView":4,"count":44631,"type":"VEC3","min":[0.18873542547225952,-1.311729907989502,0.5330480337142944],"byteOffset":0},{"componentType":5126,"bufferView":4,"count":44631,"type":"VEC3","byteOffset":12},{"componentType":5126,"bufferView":4,"count":44631,"type":"VEC4","byteOffset":24},{"componentType":5126,"bufferView":4,"count":44631,"type":"VEC2","byteOffset":40},{"componentType":5126,"bufferView":4,"count":44631,"type":"VEC2","byteOffset":48},{"componentType":5126,"max":[-0.4996180236339569,-0.09500476717948914,1.308000922203064],"bufferView":5,"count":14157,"type":"VEC3","min":[-1.5730154514312744,-1.110843300819397,0.5753551125526428],"byteOffset":0},{"componentType":5126,"bufferView":5,"count":14157,"type":"VEC3","byteOffset":12},{"componentType":5126,"bufferView":5,"count":14157,"type":"VEC4","byteOffset":24},{"componentType":5126,"bufferView":5,"count":14157,"type":"VEC2","byteOffset":40},{"componentType":5126,"bufferView":5,"count":14157,"type":"VEC2","byteOffset":48},{"componentType":5126,"max":[1.2831345796585083,-0.10885299742221832,1.3549771308898926],"bufferView":6,"count":14157,"type":"VEC3","min":[0.1285082995891571,-1.2015645503997803,0.5668885707855225],"byteOffset":0},{"componentType":5126,"bufferView":6,"count":14157,"type":"VEC3","byteOffset":12},{"componentType":5126,"bufferView":6,"count":14157,"type":"VEC4","byteOffset":24},{"componentType":5126,"bufferView":6,"count":14157,"type":"VEC2","byteOffset":40},{"componentType":5126,"bufferView":6,"count":14157,"type":"VEC2","byteOffset":48},{"componentType":5126,"max":[-0.521868884563446,-0.22436778247356415,1.430505394935608],"bufferView":7,"count":12450,"type":"VEC3","min":[-1.5183993577957153,-1.1373144388198853,0.5411196947097778],"byteOffset":0},{"componentType":5126,"bufferView":7,"count":12450,"type":"VEC3","byteOffset":12},{"componentType":5126,"bufferView":7,"count":12450,"type":"VEC4","byteOffset":24},{"componentType":5126,"bufferView":7,"count":12450,"type":"VEC2","byteOffset":40},{"componentType":5126,"bufferView":7,"count":12450,"type":"VEC2","byteOffset":48},{"componentType":5126,"max":[1.259199857711792,-0.2480054795742035,1.4867520332336426],"bufferView":8,"count":12450,"type":"VEC3","min":[0.18725749850273132,-1.2300390005111694,0.5300623774528503],"byteOffset":0},{"componentType":5126,"bufferView":8,"count":12450,"type":"VEC3","byteOffset":12},{"componentType":5126,"bufferView":8,"count":12450,"type":"VEC4","byteOffset":24},{"componentType":5126,"bufferView":8,"count":12450,"type":"VEC2","byteOffset":40},{"componentType":5126,"bufferView":8,"count":12450,"type":"VEC2","byteOffset":48},{"componentType":5126,"max":[-0.4650721251964569,-0.16628432273864746,1.3020687103271484],"bufferView":9,"count":10617,"type":"VEC3","min":[-1.6248654127120972,-1.0852705240249634,0.47820281982421875],"byteOffset":0},{"componentType":5126,"bufferView":9,"count":10617,"type":"VEC3","byteOffset":12},{"componentType":5126,"bufferView":9,"count":10617,"type":"VEC4","byteOffset":24},{"componentType":5126,"bufferView":9,"count":10617,"type":"VEC2","byteOffset":40},{"componentType":5126,"bufferView":9,"count":10617,"type":"VEC2","byteOffset":48},{"componentType":5126,"max":[1.320294737815857,-0.18552660942077637,1.3485958576202393],"bufferView":10,"count":10617,"type":"VEC3","min":[0.07273460179567337,-1.1740566492080688,0.46238431334495544],"byteOffset":0},{"componentType":5126,"bufferView":10,"count":10617,"type":"VEC3","byteOffset":12},{"componentType":5126,"bufferView":10,"count":10617,"type":"VEC4","byteOffset":24},{"componentType":5126,"bufferView":10,"count":10617,"type":"VEC2","byteOffset":40},{"componentType":5126,"bufferView":10,"count":10617,"type":"VEC2","byteOffset":48},{"componentType":5126,"max":[-0.5111320614814758,-0.043509405106306076,1.9065115451812744],"bufferView":11,"count":228726,"type":"VEC3","min":[-1.5907561779022217,-1.1244481801986694,0.6302024722099304],"byteOffset":0},{"componentType":5126,"bufferView":11,"count":228726,"type":"VEC3","byteOffset":12},{"componentType":5126,"bufferView":11,"count":228726,"type":"VEC4","byteOffset":24},{"componentType":5126,"bufferView":11,"count":228726,"type":"VEC2","byteOffset":40},{"componentType":5126,"bufferView":11,"count":228726,"type":"VEC2","byteOffset":48},{"componentType":5126,"max":[1.1795108318328857,-0.1578904241323471,1.819620132446289],"bufferView":12,"count":107694,"type":"VEC3","min":[0.20424708724021912,-1.1342027187347412,0.6258864998817444],"byteOffset":0},{"componentType":5126,"bufferView":12,"count":107694,"type":"VEC3","byteOffset":12},{"componentType":5126,"bufferView":12,"count":107694,"type":"VEC4","byteOffset":24},{"componentType":5126,"bufferView":12,"count":107694,"type":"VEC2","byteOffset":40},{"componentType":5126,"bufferView":12,"count":107694,"type":"VEC2","byteOffset":48},{"componentType":5126,"max":[0.38523998856544495,-0.06824637949466705,1.649513840675354],"bufferView":13,"count":5446,"type":"VEC3","min":[-0.7996749877929688,-1.0996037721633911,0.5771188139915466],"byteOffset":0},{"componentType":5126,"bufferView":13,"count":5446,"type":"VEC3","byteOffset":12},{"componentType":5126,"bufferView":13,"count":5446,"type":"VEC4","byteOffset":24},{"componentType":5126,"bufferView":13,"count":5446,"type":"VEC2","byteOffset":40},{"componentType":5126,"bufferView":13,"count":5446,"type":"VEC2","byteOffset":48},{"componentType":5126,"max":[0.39284029603004456,-0.06331344693899155,1.6502501964569092],"bufferView":14,"count":14736,"type":"VEC3","min":[-0.8015074133872986,-1.1139296293258667,0.5771943926811218],"byteOffset":0},{"componentType":5126,"bufferView":14,"count":14736,"type":"VEC3","byteOffset":12},{"componentType":5126,"bufferView":14,"count":14736,"type":"VEC4","byteOffset":24},{"componentType":5126,"bufferView":14,"count":14736,"type":"VEC2","byteOffset":40},{"componentType":5126,"bufferView":14,"count":14736,"type":"VEC2","byteOffset":48},{"componentType":5126,"max":[-0.027053793892264366,-0.45439642667770386,0.8474628925323486],"bufferView":15,"count":1288,"type":"VEC3","min":[-0.22890380024909973,-0.6361472606658936,0.6093559265136719],"byteOffset":0},{"componentType":5126,"bufferView":15,"count":1288,"type":"VEC3","byteOffset":12},{"componentType":5126,"bufferView":15,"count":1288,"type":"VEC4","byteOffset":24},{"componentType":5126,"bufferView":15,"count":1288,"type":"VEC2","byteOffset":40},{"componentType":5126,"bufferView":15,"count":1288,"type":"VEC2","byteOffset":48},{"componentType":5126,"max":[-0.07795364409685135,1.0714216232299805,3.0554869174957275],"bufferView":16,"count":45344,"type":"VEC3","min":[-1.6801007986068726,-0.46618953347206116,0.9082497358322144],"byteOffset":0},{"componentType":5126,"bufferView":16,"count":45344,"type":"VEC3","byteOffset":12},{"componentType":5126,"bufferView":16,"count":45344,"type":"VEC4","byteOffset":24},{"componentType":5126,"bufferView":16,"count":45344,"type":"VEC2","byteOffset":40},{"componentType":5126,"bufferView":16,"count":45344,"type":"VEC2","byteOffset":48},{"componentType":5126,"max":[-0.1647474616765976,1.0088304281234741,2.980050802230835],"bufferView":17,"count":48447,"type":"VEC3","min":[-1.6176453828811646,-0.40487542748451233,0.6513912677764893],"byteOffset":0},{"componentType":5126,"bufferView":17,"count":48447,"type":"VEC3","byteOffset":12},{"componentType":5126,"bufferView":17,"count":48447,"type":"VEC4","byteOffset":24},{"componentType":5126,"bufferView":17,"count":48447,"type":"VEC2","byteOffset":40},{"componentType":5126,"bufferView":17,"count":48447,"type":"VEC2","byteOffset":48},{"componentType":5126,"max":[-0.09530960023403168,1.076966643333435,3.023421049118042],"bufferView":18,"count":22087,"type":"VEC3","min":[-1.6195333003997803,-0.44145509600639343,0.907292366027832],"byteOffset":0},{"componentType":5126,"bufferView":18,"count":22087,"type":"VEC3","byteOffset":12},{"componentType":5126,"bufferView":18,"count":22087,"type":"VEC4","byteOffset":24},{"componentType":5126,"bufferView":18,"count":22087,"type":"VEC2","byteOffset":40},{"componentType":5126,"bufferView":18,"count":22087,"type":"VEC2","byteOffset":48},{"componentType":5126,"max":[-0.0903225690126419,1.054181456565857,2.9494171142578125],"bufferView":19,"count":6240,"type":"VEC3","min":[-1.5925467014312744,-0.4357614517211914,0.9431332349777222],"byteOffset":0},{"componentType":5126,"bufferView":19,"count":6240,"type":"VEC3","byteOffset":12},{"componentType":5126,"bufferView":19,"count":6240,"type":"VEC4","byteOffset":24},{"componentType":5126,"bufferView":19,"count":6240,"type":"VEC2","byteOffset":40},{"componentType":5126,"bufferView":19,"count":6240,"type":"VEC2","byteOffset":48},{"componentType":5126,"max":[-0.1369340419769287,1.070865511894226,3.0037004947662354],"bufferView":20,"count":7813,"type":"VEC3","min":[-1.6601982116699219,-0.46154651045799255,1.0045764446258545],"byteOffset":0},{"componentType":5126,"bufferView":20,"count":7813,"type":"VEC3","byteOffset":12},{"componentType":5126,"bufferView":20,"count":7813,"type":"VEC4","byteOffset":24},{"componentType":5126,"bufferView":20,"count":7813,"type":"VEC2","byteOffset":40},{"componentType":5126,"bufferView":20,"count":7813,"type":"VEC2","byteOffset":48},{"componentType":5126,"max":[-0.6519300937652588,0.5380908846855164,0.6783848404884338],"bufferView":21,"count":6320,"type":"VEC3","min":[-1.0639445781707764,0.12607650458812714,0.6348199844360352],"byteOffset":0},{"componentType":5126,"bufferView":21,"count":6320,"type":"VEC3","byteOffset":12},{"componentType":5126,"bufferView":21,"count":6320,"type":"VEC2","byteOffset":24},{"componentType":5126,"bufferView":21,"count":6320,"type":"VEC2","byteOffset":32},{"componentType":5126,"max":[0.8549442887306213,0.5418019890785217,0.6505276560783386],"bufferView":22,"count":6320,"type":"VEC3","min":[0.47846242785453796,0.16532006859779358,0.5876797437667847],"byteOffset":0},{"componentType":5126,"bufferView":22,"count":6320,"type":"VEC3","byteOffset":12},{"componentType":5126,"bufferView":22,"count":6320,"type":"VEC2","byteOffset":24},{"componentType":5126,"bufferView":22,"count":6320,"type":"VEC2","byteOffset":32},{"componentType":5126,"max":[0.08632390946149826,-0.3156503438949585,0.6705976724624634],"bufferView":23,"count":3920,"type":"VEC3","min":[-0.29827913641929626,-0.7004017233848572,0.617955207824707],"byteOffset":0},{"componentType":5126,"bufferView":23,"count":3920,"type":"VEC3","byteOffset":12},{"componentType":5126,"bufferView":23,"count":3920,"type":"VEC2","byteOffset":24},{"componentType":5126,"bufferView":23,"count":3920,"type":"VEC2","byteOffset":32},{"componentType":5126,"max":[-0.8593562245368958,-0.4499523937702179,0.6705976724624634],"bufferView":24,"count":3920,"type":"VEC3","min":[-1.2439593076705933,-0.834703803062439,0.617955207824707],"byteOffset":0},{"componentType":5126,"bufferView":24,"count":3920,"type":"VEC3","byteOffset":12},{"componentType":5126,"bufferView":24,"count":3920,"type":"VEC2","byteOffset":24},{"componentType":5126,"bufferView":24,"count":3920,"type":"VEC2","byteOffset":32},{"componentType":5126,"max":[0.8958487510681152,-0.49039411544799805,0.6705976724624634],"bufferView":25,"count":3920,"type":"VEC3","min":[0.5112456679344177,-0.8751455545425415,0.617955207824707],"byteOffset":0},{"componentType":5126,"bufferView":25,"count":3920,"type":"VEC3","byteOffset":12},{"componentType":5126,"bufferView":25,"count":3920,"type":"VEC2","byteOffset":24},{"componentType":5126,"bufferView":25,"count":3920,"type":"VEC2","byteOffset":32},{"componentType":5126,"max":[0.890259861946106,0.577117383480072,0.6135126948356628],"bufferView":26,"count":16909,"type":"VEC3","min":[0.44314682483673096,0.1300043910741806,0.20226915180683136],"byteOffset":0},{"componentType":5126,"bufferView":26,"count":16909,"type":"VEC3","byteOffset":12},{"componentType":5126,"bufferView":26,"count":16909,"type":"VEC2","byteOffset":24},{"componentType":5126,"bufferView":26,"count":16909,"type":"VEC2","byteOffset":32},{"componentType":5126,"max":[0.12911775708198547,-0.272930771112442,0.6513035297393799],"bufferView":27,"count":17674,"type":"VEC3","min":[-0.3410727381706238,-0.743121325969696,0.21472808718681335],"byteOffset":0},{"componentType":5126,"bufferView":27,"count":17674,"type":"VEC3","byteOffset":12},{"componentType":5126,"bufferView":27,"count":17674,"type":"VEC2","byteOffset":24},{"componentType":5126,"bufferView":27,"count":17674,"type":"VEC2","byteOffset":32},{"componentType":5126,"max":[-0.6825690269470215,0.5074518918991089,0.21942199766635895],"bufferView":28,"count":3504,"type":"VEC3","min":[-1.0333055257797241,0.1567154973745346,-0.00000000953674295089968],"byteOffset":0},{"componentType":5126,"bufferView":28,"count":3504,"type":"VEC3","byteOffset":12},{"componentType":5126,"bufferView":28,"count":3504,"type":"VEC2","byteOffset":24},{"componentType":5126,"bufferView":28,"count":3504,"type":"VEC2","byteOffset":32},{"componentType":5126,"max":[0.06567566096782684,-0.33637306094169617,0.21477414667606354],"bufferView":29,"count":3504,"type":"VEC3","min":[-0.2776305377483368,-0.6796791553497314,0.0000006294250169958104],"byteOffset":0},{"componentType":5126,"bufferView":29,"count":3504,"type":"VEC3","byteOffset":12},{"componentType":5126,"bufferView":29,"count":3504,"type":"VEC2","byteOffset":24},{"componentType":5126,"bufferView":29,"count":3504,"type":"VEC2","byteOffset":32},{"componentType":5126,"max":[0.8283964991569519,0.5152541399002075,0.2023114413022995],"bufferView":30,"count":3504,"type":"VEC3","min":[0.5050101280212402,0.1918676495552063,-0.00000003814697180359872],"byteOffset":0},{"componentType":5126,"bufferView":30,"count":3504,"type":"VEC3","byteOffset":12},{"componentType":5126,"bufferView":30,"count":3504,"type":"VEC2","byteOffset":24},{"componentType":5126,"bufferView":30,"count":3504,"type":"VEC2","byteOffset":32},{"componentType":5126,"max":[0.938642680644989,-0.44767463207244873,0.6513035297393799],"bufferView":31,"count":17674,"type":"VEC3","min":[0.46845224499702454,-0.9178652167320251,0.21472808718681335],"byteOffset":0},{"componentType":5126,"bufferView":31,"count":17674,"type":"VEC3","byteOffset":12},{"componentType":5126,"bufferView":31,"count":17674,"type":"VEC2","byteOffset":24},{"componentType":5126,"bufferView":31,"count":17674,"type":"VEC2","byteOffset":32},{"componentType":5126,"max":[-0.615473747253418,0.5745472311973572,0.6653995513916016],"bufferView":32,"count":16911,"type":"VEC3","min":[-1.1004008054733276,0.08962012827396393,0.21937541663646698],"byteOffset":0},{"componentType":5126,"bufferView":32,"count":16911,"type":"VEC3","byteOffset":12},{"componentType":5126,"bufferView":32,"count":16911,"type":"VEC2","byteOffset":24},{"componentType":5126,"bufferView":32,"count":16911,"type":"VEC2","byteOffset":32},{"componentType":5126,"max":[-0.8800045847892761,-0.47067520022392273,0.21477414667606354],"bufferView":33,"count":3504,"type":"VEC3","min":[-1.2233107089996338,-0.813981294631958,0.0000006294250169958104],"byteOffset":0},{"componentType":5126,"bufferView":33,"count":3504,"type":"VEC3","byteOffset":12},{"componentType":5126,"bufferView":33,"count":3504,"type":"VEC2","byteOffset":24},{"componentType":5126,"bufferView":33,"count":3504,"type":"VEC2","byteOffset":32},{"componentType":5126,"max":[-0.8165624141693115,-0.40723273158073425,0.6513035297393799],"bufferView":34,"count":17674,"type":"VEC3","min":[-1.2867529392242432,-0.8774232864379883,0.21472808718681335],"byteOffset":0},{"componentType":5126,"bufferView":34,"count":17674,"type":"VEC3","byteOffset":12},{"componentType":5126,"bufferView":34,"count":17674,"type":"VEC2","byteOffset":24},{"componentType":5126,"bufferView":34,"count":17674,"type":"VEC2","byteOffset":32},{"componentType":5126,"max":[0.875200629234314,-0.5111169219017029,0.21477414667606354],"bufferView":35,"count":3504,"type":"VEC3","min":[0.5318943858146667,-0.8544230461120605,0.0000006294250169958104],"byteOffset":0},{"componentType":5126,"bufferView":35,"count":3504,"type":"VEC3","byteOffset":12},{"componentType":5126,"bufferView":35,"count":3504,"type":"VEC2","byteOffset":24},{"componentType":5126,"bufferView":35,"count":3504,"type":"VEC2","byteOffset":32}],"textures":[{"source":0,"sampler":0},{"source":1,"sampler":0},{"source":2,"sampler":0},{"source":3,"sampler":0},{"source":4,"sampler":0},{"source":5,"sampler":0},{"source":6,"sampler":0},{"source":7,"sampler":0},{"source":8,"sampler":0},{"source":9,"sampler":0},{"source":10,"sampler":0},{"source":11,"sampler":0},{"source":12,"sampler":0},{"source":13,"sampler":0},{"source":14,"sampler":0}],"buffers":[{"byteLength":59855756,"uri":"buffer.bin"}],"bufferViews":[{"byteLength":9518708,"target":34963,"byteOffset":0,"buffer":0},{"byteLength":1035664,"byteStride":56,"target":34962,"byteOffset":9518708,"buffer":0},{"byteLength":7665168,"byteStride":56,"target":34962,"byteOffset":10554372,"buffer":0},{"byteLength":2499336,"byteStride":56,"target":34962,"byteOffset":18219540,"buffer":0},{"byteLength":2499336,"byteStride":56,"target":34962,"byteOffset":20718876,"buffer":0},{"byteLength":792792,"byteStride":56,"target":34962,"byteOffset":23218212,"buffer":0},{"byteLength":792792,"byteStride":56,"target":34962,"byteOffset":24011004,"buffer":0},{"byteLength":697200,"byteStride":56,"target":34962,"byteOffset":24803796,"buffer":0},{"byteLength":697200,"byteStride":56,"target":34962,"byteOffset":25500996,"buffer":0},{"byteLength":594552,"byteStride":56,"target":34962,"byteOffset":26198196,"buffer":0},{"byteLength":594552,"byteStride":56,"target":34962,"byteOffset":26792748,"buffer":0},{"byteLength":12808656,"byteStride":56,"target":34962,"byteOffset":27387300,"buffer":0},{"byteLength":6030864,"byteStride":56,"target":34962,"byteOffset":40195956,"buffer":0},{"byteLength":304976,"byteStride":56,"target":34962,"byteOffset":46226820,"buffer":0},{"byteLength":825216,"byteStride":56,"target":34962,"byteOffset":46531796,"buffer":0},{"byteLength":72128,"byteStride":56,"target":34962,"byteOffset":47357012,"buffer":0},{"byteLength":2539264,"byteStride":56,"target":34962,"byteOffset":47429140,"buffer":0},{"byteLength":2713032,"byteStride":56,"target":34962,"byteOffset":49968404,"buffer":0},{"byteLength":1236872,"byteStride":56,"target":34962,"byteOffset":52681436,"buffer":0},{"byteLength":349440,"byteStride":56,"target":34962,"byteOffset":53918308,"buffer":0},{"byteLength":437528,"byteStride":56,"target":34962,"byteOffset":54267748,"buffer":0},{"byteLength":252800,"byteStride":40,"target":34962,"byteOffset":54705276,"buffer":0},{"byteLength":252800,"byteStride":40,"target":34962,"byteOffset":54958076,"buffer":0},{"byteLength":156800,"byteStride":40,"target":34962,"byteOffset":55210876,"buffer":0},{"byteLength":156800,"byteStride":40,"target":34962,"byteOffset":55367676,"buffer":0},{"byteLength":156800,"byteStride":40,"target":34962,"byteOffset":55524476,"buffer":0},{"byteLength":676360,"byteStride":40,"target":34962,"byteOffset":55681276,"buffer":0},{"byteLength":706960,"byteStride":40,"target":34962,"byteOffset":56357636,"buffer":0},{"byteLength":140160,"byteStride":40,"target":34962,"byteOffset":57064596,"buffer":0},{"byteLength":140160,"byteStride":40,"target":34962,"byteOffset":57204756,"buffer":0},{"byteLength":140160,"byteStride":40,"target":34962,"byteOffset":57344916,"buffer":0},{"byteLength":706960,"byteStride":40,"target":34962,"byteOffset":57485076,"buffer":0},{"byteLength":676440,"byteStride":40,"target":34962,"byteOffset":58192036,"buffer":0},{"byteLength":140160,"byteStride":40,"target":34962,"byteOffset":58868476,"buffer":0},{"byteLength":706960,"byteStride":40,"target":34962,"byteOffset":59008636,"buffer":0},{"byteLength":140160,"byteStride":40,"target":34962,"byteOffset":59715596,"buffer":0}],"samplers":[{"magFilter":9729,"minFilter":9987}],"scene":0,"nodes":[{"children":[1],"name":"RootNode"},{"rotation":[-0.70710676908493,0,0,0.70710676908493],"children":[2],"name":"组001","translation":[0,1.52774345874786,0]},{"children":[3,4,5,6,7,8,9,10,11,12,13,14,15,16,17,18,19,20,21,22],"name":"Indoor_Plant_Set_40_021","translation":[0,0,-1.52774345874786]},{"name":"Indoor_Plant_Set_40_001","mesh":5},{"name":"Indoor_Plant_Set_40_002","mesh":10},{"name":"Indoor_Plant_Set_40_003","mesh":11},{"name":"Indoor_Plant_Set_40_004","mesh":12},{"name":"Indoor_Plant_Set_40_005","mesh":13},{"name":"Indoor_Plant_Set_40_006","mesh":14},{"name":"Indoor_Plant_Set_40_007","mesh":6},{"name":"Indoor_Plant_Set_40_008","mesh":7},{"name":"Indoor_Plant_Set_40_009","mesh":15},{"name":"Indoor_Plant_Set_40_010","mesh":16},{"name":"Indoor_Plant_Set_40_011","mesh":0},{"name":"Indoor_Plant_Set_40_012","mesh":8},{"name":"Indoor_Plant_Set_40_013","mesh":17},{"name":"Indoor_Plant_Set_40_014","mesh":18},{"name":"Indoor_Plant_Set_40_015","mesh":1},{"name":"Indoor_Plant_Set_40_016","mesh":2},{"name":"Indoor_Plant_Set_40_017","mesh":9},{"name":"Indoor_Plant_Set_40_018","mesh":19},{"name":"Indoor_Plant_Set_40_019","mesh":3},{"name":"Indoor_Plant_Set_40_020","mesh":4}],"materials":[{"pbrMetallicRoughness":{"roughnessFactor":0.69,"baseColorFactor":[1,1,1,1],"baseColorTexture":{"index":1},"metallicFactor":0},"extensions":{"KHR_materials_specular":{"specularFactor":0.3}},"name":"Material #17"},{"pbrMetallicRoughness":{"roughnessFactor":0.56,"baseColorFactor":[0.3066347662031576,0.27583283346124515,0.20835965596076741,1],"metallicFactor":0},"extensions":{"KHR_materials_specular":{"specularFactor":0.3}},"name":"Material #18"},{"normalTexture":{"index":2},"pbrMetallicRoughness":{"roughnessFactor":0.800000011920929,"baseColorFactor":[1,1,1,1],"baseColorTexture":{"index":0},"metallicFactor":0.200000002980232},"extensions":{"KHR_materials_specular":{"specularFactor":0.3}},"name":"Material #2"},{"normalTexture":{"index":10},"pbrMetallicRoughness":{"roughnessFactor":0.800000011920929,"baseColorFactor":[1,1,1,1],"baseColorTexture":{"index":3},"metallicFactor":0.200000002980232},"alphaCutoff":0.04,"extensions":{"KHR_materials_specular":{"specularFactor":0.3}},"name":"Material #3","alphaMode":"MASK"},{"pbrMetallicRoughness":{"roughnessFactor":0.800000011920929,"baseColorFactor":[1,1,1,1],"baseColorTexture":{"index":4},"metallicFactor":0.200000002980232},"extensions":{"KHR_materials_specular":{"specularFactor":0.3}},"name":"Material #4","doubleSided":true},{"pbrMetallicRoughness":{"roughnessFactor":0.800000011920929,"baseColorFactor":[1,1,1,1],"baseColorTexture":{"index":5},"metallicFactor":0.200000002980232},"extensions":{"KHR_materials_specular":{"specularFactor":0.3}},"name":"Material #5","doubleSided":true},{"pbrMetallicRoughness":{"roughnessFactor":0.800000011920929,"baseColorFactor":[1,1,1,1],"baseColorTexture":{"index":6},"metallicFactor":0.200000002980232},"extensions":{"KHR_materials_specular":{"specularFactor":0.3}},"name":"Material #6","doubleSided":true},{"pbrMetallicRoughness":{"roughnessFactor":0.800000011920929,"baseColorFactor":[1,1,1,1],"baseColorTexture":{"index":7},"metallicFactor":0.200000002980232},"extensions":{"KHR_materials_specular":{"specularFactor":0.3}},"name":"Material #7","doubleSided":true},{"normalTexture":{"index":10},"pbrMetallicRoughness":{"roughnessFactor":0.800000011920929,"baseColorFactor":[0.49361620131107364,0.6730490732809419,0.4647411349738896,1],"baseColorTexture":{"index":3},"metallicFactor":0.200000002980232},"alphaCutoff":0.23,"extensions":{"KHR_materials_specular":{"specularFactor":0.3}},"name":"Material #8","doubleSided":true,"alphaMode":"MASK"},{"normalTexture":{"index":2},"pbrMetallicRoughness":{"roughnessFactor":0.800000011920929,"baseColorFactor":[1,1,1,1],"baseColorTexture":{"index":0},"metallicFactor":0.200000002980232},"extensions":{"KHR_materials_specular":{"specularFactor":0.3}},"name":"Material #9"},{"normalTexture":{"index":14},"pbrMetallicRoughness":{"roughnessFactor":0.800000011920929,"baseColorFactor":[1,1,1,1],"baseColorTexture":{"index":8},"metallicFactor":0.200000002980232},"alphaCutoff":0.5,"extensions":{"KHR_materials_specular":{"specularFactor":0.3}},"name":"Material #10","doubleSided":true,"alphaMode":"MASK"},{"normalTexture":{"index":10},"pbrMetallicRoughness":{"roughnessFactor":0.800000011920929,"baseColorFactor":[1,1,1,1],"baseColorTexture":{"index":3},"metallicFactor":0.200000002980232},"alphaCutoff":0.25,"extensions":{"KHR_materials_specular":{"specularFactor":0.3}},"name":"Material #11","doubleSided":true,"alphaMode":"MASK"},{"normalTexture":{"index":13},"pbrMetallicRoughness":{"roughnessFactor":0.800000011920929,"baseColorFactor":[1,1,1,1],"baseColorTexture":{"index":11},"metallicFactor":0.200000002980232},"alphaCutoff":0.5,"extensions":{"KHR_materials_specular":{"specularFactor":0.3}},"name":"Material #12","doubleSided":true,"alphaMode":"MASK"},{"normalTexture":{"index":2},"pbrMetallicRoughness":{"roughnessFactor":0.800000011920929,"baseColorFactor":[1,1,1,1],"baseColorTexture":{"index":0},"metallicFactor":0.200000002980232},"extensions":{"KHR_materials_specular":{"specularFactor":0.3}},"name":"Material #13"},{"normalTexture":{"index":13},"pbrMetallicRoughness":{"baseColorFactor":[1,1,1,1],"baseColorTexture":{"index":11},"metallicFactor":0},"alphaCutoff":0.81,"extensions":{"KHR_materials_specular":{"specularFactor":0.3}},"name":"Material #14","alphaMode":"MASK"},{"pbrMetallicRoughness":{"roughnessFactor":0.800000011920929,"baseColorFactor":[1,1,1,1],"baseColorTexture":{"index":9},"metallicFactor":0.200000002980232},"alphaCutoff":0.5,"extensions":{"KHR_materials_specular":{"specularFactor":0.3}},"name":"Material #15","alphaMode":"MASK"},{"normalTexture":{"index":13},"pbrMetallicRoughness":{"roughnessFactor":0.800000011920929,"baseColorFactor":[1,1,1,1],"baseColorTexture":{"index":12},"metallicFactor":0.200000002980232},"alphaCutoff":0.3,"extensions":{"KHR_materials_specular":{"specularFactor":0.3}},"name":"Material #16","alphaMode":"MASK"}],"scenes":[{"nodes":[0],"name":"Root Scene"}],"asset":{"generator":"CG美术之家","source":"https://www.cgmszj.com/model/104831.html","version":"2.0"},"meshes":[{"primitives":[{"mode":4,"indices":0,"material":2,"attributes":{"TEXCOORD_1":39,"COLOR_0":37,"POSITION":35,"TEXCOORD_0":38,"NORMAL":36}},{"mode":4,"indices":1,"material":3,"attributes":{"TEXCOORD_1":44,"COLOR_0":42,"POSITION":40,"TEXCOORD_0":43,"NORMAL":41}}],"name":"Indoor_Plant_Set_40_011"},{"primitives":[{"mode":4,"indices":2,"material":4,"attributes":{"TEXCOORD_1":49,"COLOR_0":47,"POSITION":45,"TEXCOORD_0":48,"NORMAL":46}},{"mode":4,"indices":4,"material":5,"attributes":{"TEXCOORD_1":59,"COLOR_0":57,"POSITION":55,"TEXCOORD_0":58,"NORMAL":56}},{"mode":4,"indices":6,"material":6,"attributes":{"TEXCOORD_1":69,"COLOR_0":67,"POSITION":65,"TEXCOORD_0":68,"NORMAL":66}},{"mode":4,"indices":8,"material":7,"attributes":{"TEXCOORD_1":79,"COLOR_0":77,"POSITION":75,"TEXCOORD_0":78,"NORMAL":76}},{"mode":4,"indices":10,"material":8,"attributes":{"TEXCOORD_1":89,"COLOR_0":87,"POSITION":85,"TEXCOORD_0":88,"NORMAL":86}}],"name":"Indoor_Plant_Set_40_015"},{"primitives":[{"mode":4,"indices":3,"material":4,"attributes":{"TEXCOORD_1":54,"COLOR_0":52,"POSITION":50,"TEXCOORD_0":53,"NORMAL":51}},{"mode":4,"indices":5,"material":5,"attributes":{"TEXCOORD_1":64,"COLOR_0":62,"POSITION":60,"TEXCOORD_0":63,"NORMAL":61}},{"mode":4,"indices":7,"material":6,"attributes":{"TEXCOORD_1":74,"COLOR_0":72,"POSITION":70,"TEXCOORD_0":73,"NORMAL":71}},{"mode":4,"indices":9,"material":7,"attributes":{"TEXCOORD_1":84,"COLOR_0":82,"POSITION":80,"TEXCOORD_0":83,"NORMAL":81}},{"mode":4,"indices":11,"material":8,"attributes":{"TEXCOORD_1":94,"COLOR_0":92,"POSITION":90,"TEXCOORD_0":93,"NORMAL":91}}],"name":"Indoor_Plant_Set_40_016"},{"primitives":[{"mode":4,"indices":12,"material":9,"attributes":{"TEXCOORD_1":99,"COLOR_0":97,"POSITION":95,"TEXCOORD_0":98,"NORMAL":96}},{"mode":4,"indices":13,"material":10,"attributes":{"TEXCOORD_1":104,"COLOR_0":102,"POSITION":100,"TEXCOORD_0":103,"NORMAL":101}},{"mode":4,"indices":14,"material":11,"attributes":{"TEXCOORD_1":109,"COLOR_0":107,"POSITION":105,"TEXCOORD_0":108,"NORMAL":106}}],"name":"Indoor_Plant_Set_40_019"},{"primitives":[{"mode":4,"indices":15,"material":12,"attributes":{"TEXCOORD_1":114,"COLOR_0":112,"POSITION":110,"TEXCOORD_0":113,"NORMAL":111}},{"mode":4,"indices":16,"material":13,"attributes":{"TEXCOORD_1":119,"COLOR_0":117,"POSITION":115,"TEXCOORD_0":118,"NORMAL":116}},{"mode":4,"indices":17,"material":14,"attributes":{"TEXCOORD_1":124,"COLOR_0":122,"POSITION":120,"TEXCOORD_0":123,"NORMAL":121}},{"mode":4,"indices":18,"material":15,"attributes":{"TEXCOORD_1":129,"COLOR_0":127,"POSITION":125,"TEXCOORD_0":128,"NORMAL":126}},{"mode":4,"indices":19,"material":16,"attributes":{"TEXCOORD_1":134,"COLOR_0":132,"POSITION":130,"TEXCOORD_0":133,"NORMAL":131}}],"name":"Indoor_Plant_Set_40_020"},{"primitives":[{"mode":4,"indices":20,"material":0,"attributes":{"TEXCOORD_1":138,"POSITION":135,"TEXCOORD_0":137,"NORMAL":136}}],"name":"Indoor_Plant_Set_40_001"},{"primitives":[{"mode":4,"indices":21,"material":0,"attributes":{"TEXCOORD_1":142,"POSITION":139,"TEXCOORD_0":141,"NORMAL":140}}],"name":"Indoor_Plant_Set_40_007"},{"primitives":[{"mode":4,"indices":22,"material":0,"attributes":{"TEXCOORD_1":146,"POSITION":143,"TEXCOORD_0":145,"NORMAL":144}}],"name":"Indoor_Plant_Set_40_008"},{"primitives":[{"mode":4,"indices":23,"material":0,"attributes":{"TEXCOORD_1":150,"POSITION":147,"TEXCOORD_0":149,"NORMAL":148}}],"name":"Indoor_Plant_Set_40_012"},{"primitives":[{"mode":4,"indices":24,"material":0,"attributes":{"TEXCOORD_1":154,"POSITION":151,"TEXCOORD_0":153,"NORMAL":152}}],"name":"Indoor_Plant_Set_40_017"},{"primitives":[{"mode":4,"indices":25,"material":1,"attributes":{"TEXCOORD_1":158,"POSITION":155,"TEXCOORD_0":157,"NORMAL":156}}],"name":"Indoor_Plant_Set_40_002"},{"primitives":[{"mode":4,"indices":26,"material":1,"attributes":{"TEXCOORD_1":162,"POSITION":159,"TEXCOORD_0":161,"NORMAL":160}}],"name":"Indoor_Plant_Set_40_003"},{"primitives":[{"mode":4,"indices":27,"material":1,"attributes":{"TEXCOORD_1":166,"POSITION":163,"TEXCOORD_0":165,"NORMAL":164}}],"name":"Indoor_Plant_Set_40_004"},{"primitives":[{"mode":4,"indices":28,"material":1,"attributes":{"TEXCOORD_1":170,"POSITION":167,"TEXCOORD_0":169,"NORMAL":168}}],"name":"Indoor_Plant_Set_40_005"},{"primitives":[{"mode":4,"indices":29,"material":1,"attributes":{"TEXCOORD_1":174,"POSITION":171,"TEXCOORD_0":173,"NORMAL":172}}],"name":"Indoor_Plant_Set_40_006"},{"primitives":[{"mode":4,"indices":30,"material":1,"attributes":{"TEXCOORD_1":178,"POSITION":175,"TEXCOORD_0":177,"NORMAL":176}}],"name":"Indoor_Plant_Set_40_009"},{"primitives":[{"mode":4,"indices":31,"material":1,"attributes":{"TEXCOORD_1":182,"POSITION":179,"TEXCOORD_0":181,"NORMAL":180}}],"name":"Indoor_Plant_Set_40_010"},{"primitives":[{"mode":4,"indices":32,"material":1,"attributes":{"TEXCOORD_1":186,"POSITION":183,"TEXCOORD_0":185,"NORMAL":184}}],"name":"Indoor_Plant_Set_40_013"},{"primitives":[{"mode":4,"indices":33,"material":1,"attributes":{"TEXCOORD_1":190,"POSITION":187,"TEXCOORD_0":189,"NORMAL":188}}],"name":"Indoor_Plant_Set_40_014"},{"primitives":[{"mode":4,"indices":34,"material":1,"attributes":{"TEXCOORD_1":194,"POSITION":191,"TEXCOORD_0":193,"NORMAL":192}}],"name":"Indoor_Plant_Set_40_018"}]}